<?xml version="1.0" encoding="UTF-8" standalone="no"?>
<!DOCTYPE svg PUBLIC "-//W3C//DTD SVG 1.1//EN" "http://www.w3.org/Graphics/SVG/1.1/DTD/svg11.dtd">
<svg version="1.1" xmlns:dc="http://purl.org/dc/elements/1.1/" xmlns="http://www.w3.org/2000/svg" xmlns:xl="http://www.w3.org/1999/xlink" viewBox="533 928 56 76" width="56" height="76">
  <defs/>
  <metadata> Produced by OmniGraffle 7.10.2 
    <dc:date>2019-05-13 23:33:16 +0000</dc:date>
  </metadata>
  <g id="Canvas_1" stroke-dasharray="none" stroke="none" stroke-opacity="1" fill="none" fill-opacity="1">
    <title>Canvas 1</title>
    <g id="Canvas_1: Layer 2">
      <title>Layer 2</title>
      <g id="Line_4">
        <path d="M 535.1485 952.1356 C 535.555 951.9411 536.17363 952.1179 537.7644 952.33 C 545.8596 953.1784 575.5159 953.6965 587.0253 953.8638 C 588.1192 954.4548 584.7625 959.197 584.5309 960.0105 C 584.15665 960.7341 584.33375 964.746 581.0629 964.5887 C 576.8091 964.2395 541.73164 963.5005 541.73164 963.5005 C 541.73164 963.5005 539.97043 963.5005 539.0584 962.84 C 536.79396 961.582 532.95704 954.317 535.15855 952.1784" stroke="#ebebeb" stroke-linecap="round" stroke-linejoin="round" stroke-width="3"/>
      </g>
      <g id="Line_3">
        <path d="M 556.1726 936.0936 C 558.1011 934.1651 560.589 931.1165 563.63396 930 C 566.0192 931.1165 568.9626 934.9227 569.9776 937.0034 C 569.6814 940.4962 568.496 949.9028 566.85984 952.7363 C 563.5104 953.3453 560.46544 953.599 557.1888 952.2281 C 556.4276 949.5384 555.7171 941.1141 556.1738 936.0899" stroke="#ebebeb" stroke-linecap="round" stroke-linejoin="round" stroke-width="3"/>
      </g>
      <g id="Line_18">
        <path d="M 550.5198 976.9916 C 549.8824 975.1758 550.5118 966.2578 552.2027 964.4593 C 553.1438 963.6636 568.34846 964.3721 569.50744 964.7593 C 570.9259 965.1441 570.8761 973.6111 569.92506 974.311 C 568.37336 975.3045 564.3016 975.0367 562.63656 975.109 C 561.2519 975.209 556.5412 976.7028 554.48404 977.0008 C 553.311 977.1581 550.6786 977.6709 550.5212 976.989" stroke="#ebebeb" stroke-linecap="round" stroke-linejoin="round" stroke-width="3"/>
      </g>
      <g id="Line_25">
        <path d="M 548.14814 986.2642 C 549.3874 987.269 552.2058 985.8774 553.95075 986.4097 C 555.6957 986.9421 562.36504 988.3321 566.5796 987.6223 C 568.0879 987.3118 568.7507 987.5329 569.1844 985.9104 C 569.6181 984.288 570.2251 978.9769 569.87135 977.881 C 569.5176 976.7852 568.1027 975.378 565.3226 975.5702 C 560.64965 975.8512 555.8651 977.628 554.0314 977.6871 C 552.1977 977.7463 551.2555 977.5824 550.10736 977.4942 C 549.1071 977.4061 548.1432 978.4616 547.8501 979.6835 C 547.557 980.9053 547.38495 985.6703 548.12435 986.2618" stroke="#ebebeb" stroke-linecap="round" stroke-linejoin="round" stroke-width="3"/>
      </g>
      <g id="Line_26">
        <path d="M 548.1077 988.2658 C 547.7058 989.8065 546.78186 996.7705 546.8647 998.4296 C 546.8885 1000.111 548.5058 1001.469 551.2208 1001.8343 C 553.93577 1002.1995 566.6653 1001.8524 568.35336 1001.8169 C 569.4906 1001.3193 572.6712 998.6185 573.09766 996.6816 C 573.5241 994.7448 571.2071 989.0477 568.9019 988.3888 C 566.5967 987.7299 563.889 988.8386 560.9021 988.4003 C 557.91525 987.9621 555.32267 987.2454 551.9821 986.5879 C 548.64154 985.9305 548.0907 988.276 548.0907 988.276" stroke="#ebebeb" stroke-linecap="round" stroke-linejoin="round" stroke-width="3"/>
      </g>
    </g>
  </g>
</svg>
